# xmcd
#
# Track frame offsets:
#	150
#	19965
#	34141
#	48213
#	65683
#	82843
#	97103
#	114336
#	133378
#	148243
#	165671
#	182115
#	205137
#	221111
#	232064
#	248293
#	266183
#	280806
#	295841
#
# Disc length: 4175 seconds
#
# Revision: 0
# Processed by: cddbd v1.5.2PL0 Copyright (c) Steve Scherf et al.
# Submitted via: audiograbber 1.83.01
#
DISCID=25104d13
DTITLE=Mavericks - The Mavericks - CD 1
DYEAR=1999
DGENRE=Country
TTITLE0=Dance The Night Away
TTITLE1=I Should Know
TTITLE2=Someone Should Tell Her
TTITLE3=To Be With You
TTITLE4=I've Got This Feeling
TTITLE5=I Don't Even Know Your Name
TTITLE6=Dream River
TTITLE7=All I Get
TTITLE8=There Goes My Heart
TTITLE9=What A Crying Shame
TTITLE10=Pretend
TTITLE11=I Should Have Been True
TTITLE12=The Things You Said To Me
TTITLE13=Just A Memory
TTITLE14=All That Heaven Will Allow
TTITLE15=Neon Blue
TTITLE16=Oh What A Thrill
TTITLE17=Ain't Found Nobody
TTITLE18=The Losing Side Of Me
EXTD=
EXTT0=
EXTT1=
EXTT2=
EXTT3=
EXTT4=
EXTT5=
EXTT6=
EXTT7=
EXTT8=
EXTT9=
EXTT10=
EXTT11=
EXTT12=
EXTT13=
EXTT14=
EXTT15=
EXTT16=
EXTT17=
EXTT18=
PLAYORDER=
